<svg xmlns="http://www.w3.org/2000/svg" xmlns:xlink="http://www.w3.org/1999/xlink" width="2000" zoomAndPan="magnify" viewBox="0 0 1500 1499.999933" height="2000" preserveAspectRatio="xMidYMid meet" version="1.0"><defs><g/><clipPath id="d1d9533d30"><path d="M 953.238281 551.617188 L 1350 551.617188 L 1350 948.382812 L 953.238281 948.382812 Z M 953.238281 551.617188 " clip-rule="nonzero"/></clipPath><clipPath id="edb82e9b9f"><path d="M 1023.738281 551.617188 L 1279.5 551.617188 C 1298.199219 551.617188 1316.128906 559.046875 1329.351562 572.265625 C 1342.574219 585.488281 1350 603.421875 1350 622.117188 L 1350 877.882812 C 1350 896.578125 1342.574219 914.511719 1329.351562 927.734375 C 1316.128906 940.953125 1298.199219 948.382812 1279.5 948.382812 L 1023.738281 948.382812 C 1005.039062 948.382812 987.105469 940.953125 973.886719 927.734375 C 960.664062 914.511719 953.238281 896.578125 953.238281 877.882812 L 953.238281 622.117188 C 953.238281 603.421875 960.664062 585.488281 973.886719 572.265625 C 987.105469 559.046875 1005.039062 551.617188 1023.738281 551.617188 Z M 1023.738281 551.617188 " clip-rule="nonzero"/></clipPath><clipPath id="d9868d94ab"><path d="M 0.238281 0.617188 L 397 0.617188 L 397 397.382812 L 0.238281 397.382812 Z M 0.238281 0.617188 " clip-rule="nonzero"/></clipPath><clipPath id="1d94213fe0"><path d="M 70.738281 0.617188 L 326.5 0.617188 C 345.199219 0.617188 363.128906 8.046875 376.351562 21.265625 C 389.574219 34.488281 397 52.421875 397 71.117188 L 397 326.882812 C 397 345.578125 389.574219 363.511719 376.351562 376.734375 C 363.128906 389.953125 345.199219 397.382812 326.5 397.382812 L 70.738281 397.382812 C 52.039062 397.382812 34.105469 389.953125 20.886719 376.734375 C 7.664062 363.511719 0.238281 345.578125 0.238281 326.882812 L 0.238281 71.117188 C 0.238281 52.421875 7.664062 34.488281 20.886719 21.265625 C 34.105469 8.046875 52.039062 0.617188 70.738281 0.617188 Z M 70.738281 0.617188 " clip-rule="nonzero"/></clipPath><clipPath id="db86b1585f"><rect x="0" width="397" y="0" height="398"/></clipPath><clipPath id="a999afabb4"><rect x="0" width="319" y="0" height="510"/></clipPath><clipPath id="0f4296aa3c"><rect x="0" width="746" y="0" height="369"/></clipPath></defs><g clip-path="url(#d1d9533d30)"><g clip-path="url(#edb82e9b9f)"><g transform="matrix(1, 0, 0, 1, 953, 551)"><g clip-path="url(#db86b1585f)"><g clip-path="url(#d9868d94ab)"><g clip-path="url(#1d94213fe0)"><path fill="#f03e1b" d="M 0.238281 0.617188 L 397 0.617188 L 397 397.382812 L 0.238281 397.382812 Z M 0.238281 0.617188 " fill-opacity="1" fill-rule="nonzero"/></g></g></g></g></g></g><g transform="matrix(1, 0, 0, 1, 992, 495)"><g clip-path="url(#a999afabb4)"><g fill="#000000" fill-opacity="1"><g transform="translate(1.43057, 350.092251)"><g><path d="M 259 -168.75 C 244.488281 -164.300781 231.59375 -161.785156 220.3125 -161.203125 C 209.03125 -160.617188 199.304688 -161.28125 191.140625 -163.1875 C 182.984375 -165.09375 176.363281 -167.710938 171.28125 -171.046875 C 166.195312 -174.378906 162.539062 -177.738281 160.3125 -181.125 C 158.09375 -184.519531 157.25 -187.410156 157.78125 -189.796875 C 158.3125 -192.179688 160.113281 -193.375 163.1875 -193.375 C 174.726562 -193.375 185.160156 -194.671875 194.484375 -197.265625 C 203.804688 -199.859375 212.332031 -202.957031 220.0625 -206.5625 C 227.800781 -210.164062 234.898438 -213.445312 241.359375 -216.40625 C 248.242188 -219.582031 254.332031 -220.929688 259.625 -220.453125 C 264.925781 -219.984375 269.347656 -218.289062 272.890625 -215.375 C 276.441406 -212.46875 278.929688 -208.816406 280.359375 -204.421875 C 281.796875 -200.023438 282.035156 -195.46875 281.078125 -190.75 C 280.128906 -186.039062 277.851562 -181.695312 274.25 -177.71875 C 270.644531 -173.75 265.5625 -170.757812 259 -168.75 Z M 18.4375 -33.203125 C 12.925781 -44.535156 9.957031 -55.738281 9.53125 -66.8125 C 9.101562 -77.882812 10.71875 -88.476562 14.375 -98.59375 C 18.03125 -108.707031 23.25 -117.945312 30.03125 -126.3125 C 36.8125 -134.6875 44.726562 -141.914062 53.78125 -148 C 62.84375 -154.09375 72.535156 -158.625 82.859375 -161.59375 C 93.191406 -164.5625 103.734375 -165.644531 114.484375 -164.84375 C 125.234375 -164.050781 135.691406 -161.035156 145.859375 -155.796875 C 156.035156 -150.554688 165.460938 -142.691406 174.140625 -132.203125 C 177.960938 -127.640625 180.347656 -122.738281 181.296875 -117.5 C 182.253906 -112.257812 182.066406 -107.039062 180.734375 -101.84375 C 179.410156 -96.65625 177.160156 -91.8125 173.984375 -87.3125 C 170.804688 -82.8125 166.96875 -79.023438 162.46875 -75.953125 C 157.96875 -72.878906 153.015625 -70.8125 147.609375 -69.75 C 141.992188 -68.695312 136.671875 -68.457031 131.640625 -69.03125 C 126.609375 -69.613281 121.921875 -71.46875 117.578125 -74.59375 C 113.234375 -77.71875 109.101562 -82.515625 105.1875 -88.984375 C 101.375 -95.441406 97.03125 -100.285156 92.15625 -103.515625 C 87.28125 -106.742188 82.328125 -108.546875 77.296875 -108.921875 C 72.265625 -109.296875 67.523438 -108.367188 63.078125 -106.140625 C 58.628906 -103.910156 54.972656 -100.546875 52.109375 -96.046875 C 49.253906 -91.546875 47.535156 -86.09375 46.953125 -79.6875 C 46.367188 -73.28125 47.398438 -66 50.046875 -57.84375 C 53.335938 -48.726562 58.132812 -41.097656 64.4375 -34.953125 C 70.738281 -28.804688 78.148438 -24.144531 86.671875 -20.96875 C 95.203125 -17.789062 104.363281 -16.125 114.15625 -15.96875 C 123.957031 -15.8125 134.046875 -17.210938 144.421875 -20.171875 C 154.804688 -23.140625 165.003906 -27.671875 175.015625 -33.765625 C 185.023438 -39.859375 194.503906 -47.59375 203.453125 -56.96875 C 212.410156 -66.34375 220.332031 -77.332031 227.21875 -89.9375 C 232.832031 -100.207031 239 -108.253906 245.71875 -114.078125 C 252.445312 -119.910156 259.203125 -123.78125 265.984375 -125.6875 C 272.765625 -127.59375 279.066406 -127.75 284.890625 -126.15625 C 290.722656 -124.570312 295.570312 -121.5 299.4375 -116.9375 C 303.300781 -112.382812 305.679688 -106.613281 306.578125 -99.625 C 307.484375 -92.632812 306.425781 -84.632812 303.40625 -75.625 C 300.382812 -66.625 294.796875 -56.9375 286.640625 -46.5625 C 274.671875 -31.195312 261.585938 -18.375 247.390625 -8.09375 C 233.203125 2.175781 218.453125 10.144531 203.140625 15.8125 C 187.835938 21.476562 172.503906 25.101562 157.140625 26.6875 C 141.785156 28.28125 126.90625 28.015625 112.5 25.890625 C 98.09375 23.773438 84.71875 20.039062 72.375 14.6875 C 60.03125 9.34375 49.222656 2.617188 39.953125 -5.484375 C 30.691406 -13.585938 23.519531 -22.828125 18.4375 -33.203125 Z M 18.4375 -33.203125 "/></g></g></g></g></g><g transform="matrix(1, 0, 0, 1, 140, 551)"><g clip-path="url(#0f4296aa3c)"><g fill="#f03e1b" fill-opacity="1"><g transform="translate(0.868177, 295.807639)"><g><path d="M 82.625 -156.34375 C 101.363281 -156.34375 115.226562 -152.226562 124.21875 -144 C 133.207031 -135.78125 137.703125 -122.679688 137.703125 -104.703125 L 137.703125 0 L 119.34375 0 L 114.46875 -21.796875 L 113.3125 -21.796875 C 106.625 -13.390625 99.550781 -7.175781 92.09375 -3.15625 C 84.632812 0.863281 74.492188 2.875 61.671875 2.875 C 47.710938 2.875 36.144531 -0.804688 26.96875 -8.171875 C 17.789062 -15.535156 13.203125 -27.0625 13.203125 -42.75 C 13.203125 -58.039062 19.222656 -69.847656 31.265625 -78.171875 C 43.316406 -86.492188 61.867188 -91.035156 86.921875 -91.796875 L 113.03125 -92.65625 L 113.03125 -101.84375 C 113.03125 -114.65625 110.253906 -123.546875 104.703125 -128.515625 C 99.160156 -133.492188 91.320312 -135.984375 81.1875 -135.984375 C 73.15625 -135.984375 65.503906 -134.785156 58.234375 -132.390625 C 50.960938 -130.003906 44.175781 -127.28125 37.875 -124.21875 L 30.125 -143.15625 C 36.8125 -146.78125 44.742188 -149.882812 53.921875 -152.46875 C 63.109375 -155.050781 72.675781 -156.34375 82.625 -156.34375 Z M 112.734375 -75.15625 L 90.078125 -74.296875 C 70.953125 -73.535156 57.707031 -70.476562 50.34375 -65.125 C 42.976562 -59.769531 39.296875 -52.210938 39.296875 -42.453125 C 39.296875 -33.847656 41.925781 -27.535156 47.1875 -23.515625 C 52.445312 -19.503906 59.191406 -17.5 67.421875 -17.5 C 80.234375 -17.5 90.988281 -21.082031 99.6875 -28.25 C 108.382812 -35.425781 112.734375 -46.472656 112.734375 -61.390625 Z M 112.734375 -75.15625 "/></g></g></g><g fill="#f03e1b" fill-opacity="1"><g transform="translate(161.805703, 295.807639)"><g><path d="M 37.296875 -211.421875 C 41.117188 -211.421875 44.507812 -210.128906 47.46875 -207.546875 C 50.4375 -204.972656 51.921875 -200.910156 51.921875 -195.359375 C 51.921875 -189.816406 50.4375 -185.753906 47.46875 -183.171875 C 44.507812 -180.585938 41.117188 -179.296875 37.296875 -179.296875 C 33.085938 -179.296875 29.546875 -180.585938 26.671875 -183.171875 C 23.804688 -185.753906 22.375 -189.816406 22.375 -195.359375 C 22.375 -200.910156 23.804688 -204.972656 26.671875 -207.546875 C 29.546875 -210.128906 33.085938 -211.421875 37.296875 -211.421875 Z M 49.625 -153.765625 L 49.625 0 L 24.390625 0 L 24.390625 -153.765625 Z M 49.625 -153.765625 "/></g></g></g><g fill="#000000" fill-opacity="1"><g transform="translate(235.832439, 295.807639)"><g/></g></g><g fill="#000000" fill-opacity="1"><g transform="translate(258.78254, 295.807639)"><g/></g></g><g fill="#000000" fill-opacity="1"><g transform="translate(281.745701, 295.807639)"><g><path d="M 56.796875 -157.5 L 115.03125 -166.09375 C 118.28125 -155.957031 121.578125 -144.335938 124.921875 -131.234375 C 128.273438 -118.140625 131.289062 -104.273438 133.96875 -89.640625 C 136.644531 -75.015625 138.269531 -60.4375 138.84375 -45.90625 C 140.5625 -42.457031 143 -39.441406 146.15625 -36.859375 C 149.3125 -34.273438 154.046875 -32.796875 160.359375 -32.421875 L 160.65625 0 C 154.71875 0.570312 150.316406 -0.429688 147.453125 -3.015625 C 144.585938 -5.597656 141.71875 -8.992188 138.84375 -13.203125 L 138.5625 -14.0625 C 137.601562 -1.625 135.257812 9.898438 131.53125 20.515625 C 127.800781 31.128906 122.253906 40.257812 114.890625 47.90625 C 107.523438 55.5625 97.914062 61.203125 86.0625 64.828125 C 74.78125 68.273438 64.5 68.800781 55.21875 66.40625 C 45.945312 64.019531 37.769531 59.625 30.6875 53.21875 C 23.613281 46.8125 17.828125 39.207031 13.328125 30.40625 C 8.835938 21.613281 5.828125 12.382812 4.296875 2.71875 C 2.773438 -6.9375 2.773438 -16.160156 4.296875 -24.953125 C 5.828125 -33.753906 9.125 -41.40625 14.1875 -47.90625 C 19.257812 -54.40625 26.191406 -58.847656 34.984375 -61.234375 C 43.785156 -63.628906 54.691406 -63.203125 67.703125 -59.953125 L 74.875 -8.890625 C 65.882812 -12.140625 59 -12.851562 54.21875 -11.03125 C 49.4375 -9.21875 46.421875 -5.96875 45.171875 -1.28125 C 43.929688 3.394531 44.125 8.457031 45.75 13.90625 C 47.375 19.363281 50.242188 24.242188 54.359375 28.546875 C 58.472656 32.847656 63.539062 35.523438 69.5625 36.578125 C 75.59375 37.628906 82.144531 35.957031 89.21875 31.5625 C 96.488281 27.15625 101.554688 20.890625 104.421875 12.765625 C 107.285156 4.640625 108.523438 -4.632812 108.140625 -15.0625 C 107.765625 -25.488281 106.191406 -36.484375 103.421875 -48.046875 C 100.648438 -59.617188 97.160156 -71.140625 92.953125 -82.609375 C 88.742188 -94.085938 84.34375 -104.847656 79.75 -114.890625 C 75.15625 -124.929688 70.800781 -133.679688 66.6875 -141.140625 C 62.582031 -148.597656 59.285156 -154.050781 56.796875 -157.5 Z M 56.796875 -157.5 "/></g></g></g><g fill="#000000" fill-opacity="1"><g transform="translate(441.248811, 295.807639)"><g><path d="M 7.171875 -70 L 31.5625 -107.859375 C 42.84375 -100.210938 50.585938 -91.320312 54.796875 -81.1875 C 59.003906 -71.050781 60.34375 -60.722656 58.8125 -50.203125 C 59.382812 -47.710938 60.960938 -44.984375 63.546875 -42.015625 C 66.128906 -39.054688 69.285156 -36.617188 73.015625 -34.703125 C 76.742188 -32.796875 80.421875 -31.9375 84.046875 -32.125 L 83.765625 0 L 78.609375 0 C 71.722656 -1.34375 65.550781 -3.734375 60.09375 -7.171875 C 54.644531 -10.609375 50.296875 -15.195312 47.046875 -20.9375 C 36.722656 -6.21875 20.660156 0.757812 -1.140625 0 L -1.140625 -32.421875 L 0.28125 -32.421875 C 7.738281 -31.847656 13.238281 -33.039062 16.78125 -36 C 20.320312 -38.96875 22.1875 -42.695312 22.375 -47.1875 C 22.5625 -51.6875 21.316406 -56.085938 18.640625 -60.390625 C 15.960938 -64.691406 12.140625 -67.894531 7.171875 -70 Z M 12.625 67.984375 L 2.296875 33.5625 C 9.367188 28.78125 17.6875 25.765625 27.25 24.515625 C 36.8125 23.273438 46.566406 23.707031 56.515625 25.8125 C 66.460938 27.914062 75.351562 31.644531 83.1875 37 L 75.15625 61.109375 C 70 56.515625 64.40625 53.832031 58.375 53.0625 C 52.351562 52.300781 46.378906 52.734375 40.453125 54.359375 C 34.523438 55.984375 29.117188 58.132812 24.234375 60.8125 C 19.359375 63.488281 15.488281 65.878906 12.625 67.984375 Z M 12.625 67.984375 "/></g></g></g><g fill="#000000" fill-opacity="1"><g transform="translate(524.156018, 295.807639)"><g><path d="M 63.109375 -177.28125 C 68.660156 -177.28125 73.394531 -175.320312 77.3125 -171.40625 C 81.226562 -167.488281 83.1875 -162.753906 83.1875 -157.203125 C 83.1875 -151.660156 81.226562 -146.925781 77.3125 -143 C 73.394531 -139.082031 68.660156 -137.125 63.109375 -137.125 C 57.566406 -137.125 52.785156 -139.082031 48.765625 -143 C 44.753906 -146.925781 42.75 -151.660156 42.75 -157.203125 C 42.75 -162.753906 44.753906 -167.488281 48.765625 -171.40625 C 52.785156 -175.320312 57.566406 -177.28125 63.109375 -177.28125 Z M 8.3125 -86.0625 L 23.234375 -144.875 C 23.804688 -142.382812 26.4375 -138.363281 31.125 -132.8125 C 35.8125 -127.269531 42.070312 -121.296875 49.90625 -114.890625 C 57.75 -108.484375 66.5 -102.601562 76.15625 -97.25 C 85.820312 -91.894531 95.863281 -88.019531 106.28125 -85.625 C 116.707031 -83.238281 126.894531 -83.382812 136.84375 -86.0625 L 142 -51.640625 C 140.28125 -52.785156 137.171875 -53.546875 132.671875 -53.921875 C 128.179688 -54.304688 123.546875 -54.257812 118.765625 -53.78125 C 113.984375 -53.3125 110.253906 -52.023438 107.578125 -49.921875 C 108.535156 -46.285156 111.304688 -43.128906 115.890625 -40.453125 C 120.484375 -37.773438 126.125 -35.71875 132.8125 -34.28125 C 139.507812 -32.84375 146.300781 -32.125 153.1875 -32.125 L 153.1875 0 L 150.03125 0 C 146.59375 0.1875 142.003906 -0.00390625 136.265625 -0.578125 C 130.523438 -1.148438 126.03125 -1.914062 122.78125 -2.875 C 112.832031 -5.925781 105.132812 -10.367188 99.6875 -16.203125 C 94.238281 -22.035156 89.890625 -27.820312 86.640625 -33.5625 C 76.117188 -23.039062 63.6875 -14.671875 49.34375 -8.453125 C 35 -2.242188 20.65625 0.570312 6.3125 0 C 5.164062 0 3.96875 0.046875 2.71875 0.140625 C 1.476562 0.234375 0.285156 0.1875 -0.859375 0 L -0.859375 -32.421875 C 10.992188 -32.035156 21.894531 -32.988281 31.84375 -35.28125 C 41.789062 -37.582031 50.828125 -40.644531 58.953125 -44.46875 C 67.078125 -48.289062 74.296875 -52.113281 80.609375 -55.9375 C 65.691406 -58.039062 51.679688 -61.484375 38.578125 -66.265625 C 25.484375 -71.046875 15.394531 -77.644531 8.3125 -86.0625 Z M 8.3125 -86.0625 "/></g></g></g><g fill="#000000" fill-opacity="1"><g transform="translate(676.487262, 295.807639)"><g><path d="M -25.8125 -130.234375 L -15.484375 -164.671875 C -12.617188 -162.566406 -8.75 -160.175781 -3.875 -157.5 C 1 -154.820312 6.398438 -152.664062 12.328125 -151.03125 C 18.265625 -149.40625 24.242188 -148.972656 30.265625 -149.734375 C 36.285156 -150.503906 41.878906 -153.1875 47.046875 -157.78125 L 55.078125 -133.6875 C 47.234375 -128.332031 38.335938 -124.601562 28.390625 -122.5 C 18.453125 -120.394531 8.65625 -119.960938 -1 -121.203125 C -10.65625 -122.441406 -18.925781 -125.453125 -25.8125 -130.234375 Z M 6.890625 -70 L 31.265625 -107.859375 C 41.597656 -100.785156 49.007812 -92.515625 53.5 -83.046875 C 58 -73.578125 59.863281 -63.914062 59.09375 -54.0625 C 58.332031 -44.21875 55.414062 -35.085938 50.34375 -26.671875 C 45.28125 -18.265625 38.300781 -11.570312 29.40625 -6.59375 C 20.507812 -1.625 10.132812 0.570312 -1.71875 0 L -1.71875 -32.421875 C 5.925781 -32.421875 11.132812 -32.800781 13.90625 -33.5625 C 16.6875 -34.332031 18.742188 -35.863281 20.078125 -38.15625 C 21.796875 -41.40625 22.414062 -45.179688 21.9375 -49.484375 C 21.46875 -53.785156 19.988281 -57.847656 17.5 -61.671875 C 15.007812 -65.503906 11.472656 -68.28125 6.890625 -70 Z M 6.890625 -70 "/></g></g></g></g></g></svg>